<svg width="24" height="24" viewBox="0 0 24 24" fill="none" xmlns="http://www.w3.org/2000/svg">
<g id="Sorting Netural">
<path id="Sorting Netural_2" fill-rule="evenodd" clip-rule="evenodd" d="M11.2929 1.29289C11.6834 0.902369 12.3166 0.902369 12.7071 1.29289L19.0711 7.65685C19.4616 8.04738 19.4616 8.68054 19.0711 9.07107C18.6805 9.46159 18.0474 9.46159 17.6568 9.07107L13 4.41421L13 19.5858L17.6568 14.9289C18.0474 14.5384 18.6805 14.5384 19.0711 14.9289C19.4616 15.3195 19.4616 15.9526 19.0711 16.3431L12.7071 22.7071C12.3166 23.0976 11.6834 23.0976 11.2929 22.7071L4.92892 16.3431C4.5384 15.9526 4.5384 15.3195 4.92892 14.9289C5.31945 14.5384 5.95261 14.5384 6.34314 14.9289L11 19.5858L11 4.41421L6.34314 9.07107C5.95261 9.46159 5.31945 9.46159 4.92892 9.07107C4.5384 8.68054 4.5384 8.04738 4.92892 7.65685L11.2929 1.29289Z" fill="#222222"/>
</g>
</svg>
